name C:\Users\u0150099\Documents\master_thesis\3dpredictsim\Results\debug\Fal_s1_mtj_sc_cspx10_oy_TrackAnkleQSubtQ_MTPm_k1_d01_MTJm_nl_MG_exp_v2_table_d01_PF_Natali2010_x2_ls146_FDB_ig21.mot
datacolumns 130
datarows 4
range 1.66811601 1.70147833
endheader
time	pelvis_tilt	pelvis_list	pelvis_rotation	pelvis_tx	pelvis_ty	pelvis_tz	hip_flexion_l	hip_adduction_l	hip_rotation_l	hip_flexion_r	hip_adduction_r	hip_rotation_r	knee_angle_l	knee_angle_r	ankle_angle_l	ankle_angle_r	subtalar_angle_l	subtalar_angle_r	mtj_angle_l	mtj_angle_r	mtp_angle_l	mtp_angle_r	lumbar_extension	lumbar_bending	lumbar_rotation	arm_flex_l	arm_add_l	arm_rot_l	arm_flex_r	arm_add_r	arm_rot_r	elbow_flex_l	elbow_flex_r	pro_sup_l	pro_sup_r	glut_med1_l/activation	glut_med2_l/activation	glut_med3_l/activation	glut_min1_l/activation	glut_min2_l/activation	glut_min3_l/activation	semimem_l/activation	semiten_l/activation	bifemlh_l/activation	bifemsh_l/activation	sar_l/activation	add_long_l/activation	add_brev_l/activation	add_mag1_l/activation	add_mag2_l/activation	add_mag3_l/activation	tfl_l/activation	pect_l/activation	grac_l/activation	glut_max1_l/activation	glut_max2_l/activation	glut_max3_l/activation	iliacus_l/activation	psoas_l/activation	quad_fem_l/activation	gem_l/activation	peri_l/activation	rect_fem_l/activation	vas_med_l/activation	vas_int_l/activation	vas_lat_l/activation	med_gas_l/activation	lat_gas_l/activation	soleus_l/activation	tib_post_l/activation	flex_dig_l/activation	flex_hal_l/activation	tib_ant_l/activation	per_brev_l/activation	per_long_l/activation	per_tert_l/activation	ext_dig_l/activation	ext_hal_l/activation	FDB_l/activation	ercspn_l/activation	intobl_l/activation	extobl_l/activation	glut_med1_r/activation	glut_med2_r/activation	glut_med3_r/activation	glut_min1_r/activation	glut_min2_r/activation	glut_min3_r/activation	semimem_r/activation	semiten_r/activation	bifemlh_r/activation	bifemsh_r/activation	sar_r/activation	add_long_r/activation	add_brev_r/activation	add_mag1_r/activation	add_mag2_r/activation	add_mag3_r/activation	tfl_r/activation	pect_r/activation	grac_r/activation	glut_max1_r/activation	glut_max2_r/activation	glut_max3_r/activation	iliacus_r/activation	psoas_r/activation	quad_fem_r/activation	gem_r/activation	peri_r/activation	rect_fem_r/activation	vas_med_r/activation	vas_int_r/activation	vas_lat_r/activation	med_gas_r/activation	lat_gas_r/activation	soleus_r/activation	tib_post_r/activation	flex_dig_r/activation	flex_hal_r/activation	tib_ant_r/activation	per_brev_r/activation	per_long_r/activation	per_tert_r/activation	ext_dig_r/activation	ext_hal_r/activation	FDB_r/activation	ercspn_r/activation	intobl_r/activation	extobl_r/activation	
          1.66811601	         -2.92177340	          0.85334378	         -4.56495772	          2.21859429	          0.90648908	          0.00549433	         27.79792386	          1.93347777	         -3.75577060	        -19.24787593	          1.75381298	          7.76946391	         -6.42331323	         -7.38410978	          1.60225790	          3.87064098	         -1.11757221	          3.21438997	         -1.36468442	         -1.85063560	          7.40853443	         19.88938104	         -2.85799315	          0.18549480	          1.57197684	         -6.34907460	        -13.46932520	          5.88446169	          3.35366890	        -14.21275251	         19.38770436	         25.26356218	         35.55722839	         86.51662706	         86.51662706	          0.05000186	          0.05000043	          0.05926698	          0.05000021	          0.05000031	          0.05000141	          0.27043385	          0.07942102	          0.26608420	          0.07025231	          0.05001667	          0.13778036	          0.13472676	          0.11122081	          0.12770369	          0.11506789	          0.05926691	          0.06141380	          0.19089465	          0.05926645	          0.05926744	          0.07997950	          0.05000052	          0.05000084	          0.14300992	          0.05000128	          0.05000028	          0.05000021	          0.05000162	          0.05000154	          0.05000147	          0.08887525	          0.05000075	          0.05000003	          0.06015840	          0.05596174	          0.05000149	          0.31710294	          0.16013971	          0.12900941	          0.08394006	          0.54595181	          0.09472163	          0.06898426	          0.05016693	          0.11356461	          0.11576965	          0.34630975	          0.09473938	          0.06503113	          0.44954029	          0.25337521	          0.10500041	          0.05000269	          0.05000039	          0.05000033	          0.07341112	          0.11702263	          0.05000019	          0.05000015	          0.05000031	          0.05000103	          0.05000065	          0.64434913	          0.05000087	          0.05000081	          0.05002780	          0.05000359	          0.05000161	          0.46252616	          0.81409506	          0.05000027	          0.05000193	          0.05926738	          0.34330541	          0.05000058	          0.05000056	          0.05000053	          0.34911102	          0.47823099	          0.29479352	          0.54903959	          0.41962000	          0.54157398	          0.05000005	          0.05000029	          0.37002470	          0.05000026	          0.05000007	          0.11736202	          0.72993471	          0.05000005	          0.05000002	          0.05000014	
          1.67923678	         -2.92777581	          1.00719685	         -4.77742520	          2.23629487	          0.90581149	          0.00517612	         27.42358249	          2.39979717	         -3.66093019	        -19.21774641	          1.43348913	          7.73245520	         -6.74159770	         -9.14735001	          1.12496429	          3.12780737	         -1.45743504	          3.83706886	         -0.99821803	         -3.20635010	          6.26649860	         23.46177136	         -2.69138967	         -0.10071869	          1.70058642	         -7.09706338	        -13.45085819	          5.57301718	          2.95972084	        -14.15224226	         19.30665334	         24.70011017	         36.74395055	         86.51662706	         86.51662706	          0.05926726	          0.05926726	          0.05000016	          0.05926756	          0.05926745	          0.05916810	          0.22814780	          0.06700254	          0.22447839	          0.05926757	          0.05000106	          0.16028387	          0.16627034	          0.09383052	          0.17796138	          0.13062285	          0.05000029	          0.06842059	          0.17397908	          0.05000043	          0.05000040	          0.12977047	          0.05926903	          0.06150097	          0.43043799	          0.18906968	          0.09328626	          0.05000006	          0.05000014	          0.05000013	          0.05000013	          0.07966905	          0.06106488	          0.05000020	          0.05926732	          0.06888617	          0.06716960	          0.32334377	          0.25048919	          0.14592734	          0.07081492	          0.59201846	          0.13028901	          0.07929894	          0.05000006	          0.09580713	          0.09766742	          0.29215934	          0.07992552	          0.05486259	          0.37924827	          0.21375637	          0.08858211	          0.05000972	          0.05000061	          0.05000035	          0.06193226	          0.09872460	          0.10492225	          0.05517360	          0.05000273	          0.05000902	          0.05000937	          0.60645854	          0.07827974	          0.05000092	          0.05000142	          0.05000120	          0.05000164	          0.39020354	          0.71409822	          0.05000011	          0.05000036	          0.05000024	          0.34256612	          0.08158560	          0.08306761	          0.07107255	          0.29452242	          0.40345266	          0.24869825	          0.48460653	          0.47735218	          0.50555973	          0.05000002	          0.05001100	          0.31216606	          0.05000034	          0.05000007	          0.09901077	          0.61579899	          0.05000002	          0.06306016	          0.08779195	
          1.69035756	         -2.93017639	          1.17676653	         -4.96692777	          2.25431432	          0.90521259	          0.00482175	         27.06177418	          2.82402643	         -3.56190304	        -19.10221235	          1.09790211	          7.65588691	         -7.71955956	        -10.99298857	          0.26014751	          2.10376173	         -1.88789287	          4.47915057	         -0.71124044	         -4.68227235	          5.14125421	         27.37224126	         -2.51051523	         -0.40383611	          1.82200062	         -7.85406740	        -13.45496262	          5.48768022	          2.47325425	        -14.08699253	         19.13158495	         24.11331741	         37.96826778	         86.51662706	         86.51662706	          0.05000004	          0.05000011	          0.11207277	          0.05000026	          0.05000020	          0.05000015	          0.19247359	          0.05652576	          0.18937795	          0.05000025	          0.05000082	          0.13522151	          0.27378511	          0.28510260	          0.16901845	          0.16607047	          0.05000229	          0.08325613	          0.14677518	          0.06148596	          0.14317249	          0.18062728	          0.05000163	          0.05188540	          0.50901766	          0.15950601	          0.07869974	          0.05926892	          0.05929708	          0.05927556	          0.05926848	          0.07025249	          0.07025249	          0.07025221	          0.05000002	          0.08327325	          0.07025243	          0.44068565	          0.26891416	          0.12310949	          0.43937997	          0.53458415	          0.10991692	          0.06689942	          0.05000000	          0.08082630	          0.08239571	          0.24647603	          0.06742804	          0.05000262	          0.31994740	          0.18033252	          0.07473106	          0.05000727	          0.05000135	          0.05000765	          0.05224830	          0.08328775	          0.19258869	          0.16448569	          0.05926866	          0.05926831	          0.05926847	          0.56468581	          0.07059987	          0.05001148	          0.05013114	          0.05923942	          0.05926684	          0.32918958	          0.65752405	          0.05926719	          0.05926687	          0.05000075	          0.28900124	          0.11801314	          0.12310809	          0.10110700	          0.24846954	          0.34036696	          0.20981064	          0.40883127	          0.41105351	          0.42650881	          0.05000002	          0.05000009	          0.26335438	          0.05000010	          0.05000003	          0.08352901	          0.51950992	          0.05783688	          0.07025235	          0.07406475	
          1.70147833	         -2.92938939	          1.38796874	         -5.13572292	          2.27255038	          0.90469797	          0.00447309	         26.65009914	          3.17258396	         -3.39462110	        -18.88012075	          0.73179342	          7.53560251	         -8.91565496	        -12.92616785	         -0.73651953	          0.70468051	         -2.33500722	          5.06455478	         -0.37515059	         -6.20713443	          4.15944329	         31.57475376	         -2.31870528	         -0.75341462	          1.93321002	         -8.60248479	        -13.48914986	          5.60424401	          1.91480136	        -14.01264844	         18.90493028	         23.49252589	         39.22440333	         86.51662706	         86.51662706	          0.34285784	          0.35782514	          0.40716356	          0.44754265	          0.32475614	          0.32067969	          0.16237757	          0.14765828	          0.15976631	          0.09870953	          0.05942273	          0.11407772	          0.23097488	          0.24052277	          0.14259010	          0.19729081	          0.05000061	          0.07023854	          0.16926489	          0.25520064	          0.23781276	          0.18284132	          0.05926748	          0.05926717	          0.42942541	          0.13456515	          0.11840527	          0.05000137	          0.05002515	          0.05000698	          0.05000102	          0.05926749	          0.05926750	          0.05926725	          0.06695837	          0.07025230	          0.05926750	          0.56440615	          0.22686556	          0.12839457	          0.67806067	          0.72812964	          0.48886425	          0.37339234	          0.07376298	          0.08327356	          0.06951195	          0.25275539	          0.05688472	          0.05000003	          0.44118291	          0.15213505	          0.06304583	          0.05000474	          0.05000030	          0.05000016	          0.05926697	          0.07026497	          0.16247494	          0.13876609	          0.05000131	          0.05000152	          0.05000123	          0.64393402	          0.05963672	          0.05000061	          0.05000096	          0.05000053	          0.05000050	          0.28848395	          0.65177845	          0.05000007	          0.05000024	          0.05000008	          0.24381173	          0.09956012	          0.10385840	          0.08529750	          0.20961769	          0.28714562	          0.17700368	          0.34490454	          0.34677953	          0.35981809	          0.05000008	          0.19894462	          0.22217512	          0.05000012	          0.05000011	          0.07046805	          0.43827701	          0.08820263	          0.05926737	          0.06248365	
